<svg xmlns="http://www.w3.org/2000/svg" viewBox="0 0 307.3 90.8"><defs><style>.cls-1,.cls-2{fill:#39a935;}.cls-1{fill-rule:evenodd;}</style></defs><title>s2mblacklogo</title><g id="Layer_2" data-name="Layer 2"><g id="Layer_1-2" data-name="Layer 1"><path class="cls-1" d="M92.1,12.3h12.2c14.5,1.7,24.9,7.5,31.6,16.9C150.4,21.1,170,14.9,192.2,14a224.1,224.1,0,0,1,64,6.7v.7c-4.4,2.2-9.5-.3-14.2-1.2-14.2-2.7-31.5-4.9-48.6-4-22.3,1.1-41.6,6.3-56,14.7,9.6,15,4.4,48.8-14.9,50.5H119c-6.5-1.3-11.8-4.6-12.7-11.2-1.2-9.1,3.4-18.2,8.2-24.1a65.9,65.9,0,0,1,17.7-14.7C123,15.2,97.7,11.3,74.7,17.5,57.2,22.2,42.6,30.9,28.6,39.4c-2,1.2-4,3.5-6.7,2.5v-1C42.3,28.4,62.5,15.6,92.1,12.3Zm31.1,28.9a42.7,42.7,0,0,0-7.7,9c-2.6,4.4-6.5,13.6-4.7,20.7,1.3,4.9,7.9,9.6,14.2,8,12.5-3.3,17.2-35.2,8.2-45.3A93,93,0,0,0,123.2,41.2Z"/><polygon class="cls-2" points="257 24.7 255.7 44.8 302.1 30.2 257 24.7"/><polygon class="cls-2" points="258 19.2 263.9 0 302.2 30.1 258 19.2"/><path d="M14.3,47.7c-1.7,0-4,.8-4.6,2.8s2.4,3.4,4.1,4c6.4,2.3,6.9,5.7,6.1,8.9A12.3,12.3,0,0,1,7.8,72C3,72-1.1,69.5.3,64.2c.8-2.9,2.9-4.5,3.3-4.5s-1.8,6.8,5.4,6.8c2.5,0,5.1-1.1,5.6-3.2s-2.1-3.5-3.9-4.1C3.9,56.9,4,53.6,4.8,50.8a10.8,10.8,0,0,1,10.7-7.6c4.9,0,7.6,2.6,7.4,3.6s-2.8,4-3.7,4S17.8,47.7,14.3,47.7Z"/><path d="M35.1,45.9c-.2.9-1.8,2.9-1.9,3.4s-.1,1,.4,1l1.3-.2c1.3,0,1.1.9.8,2s-.5,1.7-1.2,1.7a10.7,10.7,0,0,0-1.5-.3c-1.8,0-2.4,2.1-3.2,5.1-2.4,8.9-.9,10.4-1.1,11S24.2,72,23.5,72s.4-7.5.9-9.3c1.1-4.1,1.7-5.7,1.9-6.4s1-2.8-.5-2.8-1,.4-1.4.4-.3-.4-.1-1c.7-2.5,1.5-2.9,2.8-2.9h.6c1,0,1.6-1.6,2.1-2.8s4.5-2.2,5.2-2.2S35.3,45.3,35.1,45.9Z"/><path d="M34.6,60.8C36,55.4,40.2,49.6,46,49.6s6.9,5.8,5.4,11.2C49.3,68.6,43.9,72,40,72S32.5,68.6,34.6,60.8Zm12.9-.8c.7-2.6.8-6.4-2.5-6.4s-5.3,3.8-6,6.4-.9,6.5,2.5,6.5S46.8,62.6,47.5,59.9Z"/><path d="M61.1,71.5c-.4,0-1.2.1-1-.5a50.6,50.6,0,0,0,4.8-11.6c.6-2.4,1.2-5.4-1-5.4s-4.1.8-5.9,7.5a79.1,79.1,0,0,0-1.6,9.6c-.1.5-.7.4-1,.4H52.5c-1.2,0-1.9.6.5-8.3C57.1,48.1,58,49,60.6,49s2.4-.2,2.2.6-.5.7-.6,1.2,0,.6.3.6,2.5-1.4,4.6-1.4,4.8.1,2.4,8.9C66,72.2,65.2,71.5,64,71.5Z"/><path d="M71.1,61.7c2.2-8.1,7.7-12.1,12.2-12.1s6.2,2.1,5.2,6c-1.9,7.2-12.3,5.7-13.3,9.2-.4,1.6,1.8,2.7,3.5,2.7,5.5,0,6.6-4.2,7.1-4.2s.1,1.7.1,2A9.3,9.3,0,0,1,76.8,72C70.8,72,69.6,67.1,71.1,61.7Zm5.4-3.3c-.1.4,0,.7.4.7s6.9-1.3,7.3-3.1a2,2,0,0,0-2.1-2.5C79.4,53.5,77,56.4,76.5,58.4Z"/><path d="M88.1,66c.4-1.6,1.8-3.6,2-3.6s-.3,5.1,4.4,5.1a3.6,3.6,0,0,0,3.6-2.4c.9-3.5-8.4-2.6-6.6-9.2a8.8,8.8,0,0,1,8.6-6.3c4.2,0,5.8,2.5,5.6,3.2s-2.8,3.4-3.5,3.4-.4-2.6-3.5-2.6c-1,0-2.6.5-2.8,1.5-.9,3.5,8.9,3.4,7.1,10.2-1.2,4.4-5.4,6.8-9.5,6.8S87.1,69.9,88.1,66Z"/><path d="M119.9,66.6c.4,0,9.6-1.8,10.5-1.8s-1.8,6.5-3.9,6.5-12.3,1.2-13.1,1.2-1.1-.9-.8-1.8c3.1-11.6,14.8-13.1,16.2-18.3.5-1.9.1-3.5-1.9-3.5s-6.3,5.3-6.9,5.3-1.4-3.7-1.3-4.1,4.5-5.7,9.3-5.7,7.2,2.6,5.9,7.2c-2.2,8.3-13.5,10.8-14.5,14.3C119.3,66.4,119.6,66.6,119.9,66.6Z"/><path d="M142.4,71.5c-.8,0-2,.6,1.3-11.9,4.4-16.6,6-15.9,6.6-15.9h3.1c1.3,0,1.8,0,2.8,2.2,2,4.3,1.5,6.8,2.2,6.8s1.4-2.4,6.1-6.8c2.5-2.3,3-2.2,4.3-2.2h2.6c.6,0,2.5-.6-2,15.9-3.4,12.6-4.2,11.9-5,11.9h-4.3c-.4,0-1.2.1-1.1-.5a78.2,78.2,0,0,0,6-15.2c.2-.7,1.4-4.8.3-4.8s-3.1,3.3-3.7,4.1c-4.7,6.9-4.4,10-6.6,10s-.9-3.2-2-10c-.1-.7-.3-4.1-1.4-4.1s-2.2,4.1-2.4,4.8a57.9,57.9,0,0,0-2,15.2c-.2.6-.9.5-1.3.5Z"/><path d="M171.2,71.5c-1.6,0-2,.7,1.2-11.1s3.3-10.4,4.4-10.4h1.8c1.4,0,1.4.1,1.3.5s-1.1,2.5-2,6.1a71.3,71.3,0,0,0-2.4,13.9c-.3,1.1-1.2.9-2,.9Zm5.6-26.3a3.3,3.3,0,0,1,3.2-2.3c1.3,0,2.3.9,2,2.3a3.2,3.2,0,0,1-3.2,2.2C177.5,47.5,176.4,46.7,176.8,45.3Z"/><path d="M179.7,71.5c-1.2,0,2-11.2,2.2-12s4.3-16.6,5.8-16.6h3.2c.4,0,1.4-.1,1.2.6a67.4,67.4,0,0,0-5,13.4,69.4,69.4,0,0,0-2.5,14.2c-.1.6-1,.4-1.3.4Z"/><path d="M188.7,61.7c2.2-8.1,7.7-12.1,12.2-12.1s6.2,2.1,5.2,6c-1.9,7.2-12.3,5.7-13.3,9.2-.4,1.6,1.8,2.7,3.5,2.7,5.5,0,6.6-4.2,7.1-4.2s.1,1.7.1,2a9.3,9.3,0,0,1-9.1,6.7C188.5,72,187.3,67.1,188.7,61.7Zm5.4-3.3c-.1.4,0,.7.4.7s6.9-1.3,7.3-3.1a2,2,0,0,0-2.1-2.5C197,53.5,194.7,56.4,194.2,58.4Z"/><path d="M205.8,66c.4-1.6,1.8-3.6,2-3.6s-.3,5.1,4.4,5.1a3.6,3.6,0,0,0,3.6-2.4c.9-3.5-8.4-2.6-6.6-9.2a8.8,8.8,0,0,1,8.6-6.3c4.2,0,5.8,2.5,5.6,3.2s-2.8,3.4-3.5,3.4-.4-2.6-3.5-2.6c-1,0-2.6.5-2.8,1.5-.9,3.5,8.9,3.4,7.1,10.2-1.2,4.4-5.4,6.8-9.5,6.8S204.7,69.9,205.8,66Z"/><path d="M236.6,45.9c-.2.9-1.8,2.9-1.9,3.4s-.1,1,.4,1l1.3-.2c1.3,0,1.1.9.7,2s-.5,1.7-1.2,1.7a10.8,10.8,0,0,0-1.5-.3c-1.8,0-2.4,2.1-3.2,5.1-2.4,8.9-.9,10.4-1.1,11s-4.5,2.4-5.3,2.4.4-7.5.9-9.3c1.1-4.1,1.7-5.7,1.9-6.4s1-2.8-.5-2.8-1,.4-1.4.4-.3-.4-.1-1c.7-2.5,1.5-2.9,2.8-2.9h.6c1,0,1.6-1.6,2.1-2.8s4.5-2.2,5.2-2.2S236.8,45.3,236.6,45.9Z"/><path d="M236.1,60.8c1.5-5.4,5.6-11.2,11.4-11.2s6.9,5.8,5.4,11.2c-2.1,7.9-7.6,11.3-11.4,11.3S234,68.6,236.1,60.8Zm12.9-.8c.7-2.6.8-6.4-2.5-6.4s-5.3,3.8-6,6.4-.9,6.5,2.5,6.5S248.3,62.6,249,59.9Z"/><path d="M262.6,71.5c-.4,0-1.2.1-1-.5a50.4,50.4,0,0,0,4.8-11.6c.6-2.4,1.2-5.4-1-5.4s-4.1.8-5.9,7.5a82.3,82.3,0,0,0-1.6,9.6c-.1.5-.7.4-1,.4H254c-1.2,0-1.9.6.5-8.3,4.1-15.2,5-14.2,7.6-14.2s2.4-.2,2.2.6-.5.7-.6,1.2,0,.6.3.6,2.5-1.4,4.6-1.4,4.8.1,2.4,8.9c-3.5,13.2-4.4,12.5-5.5,12.5Z"/><path d="M272.6,61.7c2.2-8.1,7.7-12.1,12.2-12.1s6.2,2.1,5.2,6c-1.9,7.2-12.3,5.7-13.3,9.2-.4,1.6,1.8,2.7,3.5,2.7,5.5,0,6.6-4.2,7.1-4.2s.1,1.7.1,2a9.3,9.3,0,0,1-9.1,6.7C272.3,72,271.1,67.1,272.6,61.7Zm5.4-3.3c-.1.4,0,.7.4.7s6.9-1.3,7.3-3.1a2,2,0,0,0-2.1-2.5C280.8,53.5,278.5,56.4,278,58.4Z"/><path d="M289.6,66c.4-1.6,1.8-3.6,2-3.6s-.3,5.1,4.4,5.1a3.6,3.6,0,0,0,3.6-2.4c.9-3.5-8.4-2.6-6.6-9.2a8.8,8.8,0,0,1,8.6-6.3c4.2,0,5.8,2.5,5.6,3.2s-2.8,3.4-3.5,3.4-.4-2.6-3.5-2.6c-1,0-2.6.5-2.8,1.5-.9,3.5,8.9,3.4,7.1,10.2-1.2,4.4-5.4,6.8-9.5,6.8S288.5,69.9,289.6,66Z"/><path d="M153.4,87.2h-1.5a.1.1,0,0,1,0-.1l1-5.1v-.5c0-.2,0-.3,0-.5a1.7,1.7,0,0,0-.2-.9.9.9,0,0,0-.8-.3l-.9.3-.9.8a5.5,5.5,0,0,0-.8,1.2,5.8,5.8,0,0,0-.5,1.5l-.7,3.7h-1.5a.2.2,0,0,1,0-.1l1-5.1v-.5c0-.2,0-.3,0-.5a1.6,1.6,0,0,0-.2-.9.9.9,0,0,0-.8-.3l-.9.3-.9.8a5.2,5.2,0,0,0-.8,1.2,5.8,5.8,0,0,0-.5,1.5l-.7,3.7h-1.5a.1.1,0,0,1,0-.1L143,79h1.3a.2.2,0,0,1,0,.1l-.3,1.6.5-.7.7-.6.9-.5,1-.2h.9l.6.4a1.6,1.6,0,0,1,.4.6,2.9,2.9,0,0,1,.1.8l.5-.7.7-.6.9-.5,1-.2,1,.2.7.5a1.9,1.9,0,0,1,.4.7,3.3,3.3,0,0,1,.1.9,5.9,5.9,0,0,1,0,.6v.6Z"/><path d="M163.7,78.9v.4l-.7,1.7-.8,1.9L161.1,85l-1.5,2.3-2.4,3.2h-1.7v-.2l2.2-2.9-1.4-8v-.5h1.5V79l1.1,6.7h0l1-1.6.8-1.7.7-1.7.6-1.8h1.4Z"/><path d="M176.8,81.6a8.9,8.9,0,0,1-.4,2.5,8.6,8.6,0,0,1-.6,1.3,5.2,5.2,0,0,1-.8,1.1,3.9,3.9,0,0,1-1.1.8,3.4,3.4,0,0,1-1.5.3h-.7l-.6-.2-.5-.3-.4-.4-.8,4h-1.5L170.1,79l.2-.2h1.1a.3.3,0,0,1,0,.1l-.3,1.6.4-.6.7-.6.9-.5,1.1-.2,1.2.2a2.2,2.2,0,0,1,.8.6,2.7,2.7,0,0,1,.4.9A5.4,5.4,0,0,1,176.8,81.6Zm-1.6.1a3.6,3.6,0,0,0-.1-.7,1.6,1.6,0,0,0-.2-.6l-.4-.4h-.6l-1,.3-.9.8a5.6,5.6,0,0,0-.8,1.2,5.5,5.5,0,0,0-.5,1.5l-.3,1.5a3.3,3.3,0,0,0,.9,1,2,2,0,0,0,1.1.3l.9-.2.7-.6.5-.9.4-1a6.6,6.6,0,0,0,.2-1A7.4,7.4,0,0,0,175.2,81.7Z"/><path d="M179.6,87.2h-1.5a.2.2,0,0,1,0-.1L180.5,75H182a.2.2,0,0,1,0,.1Z"/><path d="M189.2,87.2l-.2.2h-1.1a.1.1,0,0,1,0-.1l.3-1.6-.4.6-.7.6-.9.5-1.1.2a2.6,2.6,0,0,1-1.2-.3,2.1,2.1,0,0,1-.8-.7,2.8,2.8,0,0,1-.4-1,5.8,5.8,0,0,1-.1-1.1,7.6,7.6,0,0,1,.1-1.2,8.1,8.1,0,0,1,.3-1.3,7.5,7.5,0,0,1,.6-1.3,5.4,5.4,0,0,1,.8-1.1,3.9,3.9,0,0,1,1.1-.8,3.4,3.4,0,0,1,1.5-.3,2.8,2.8,0,0,1,1.4.3,3.7,3.7,0,0,1,1,.9l.2-.8.2-.2h1.1a.2.2,0,0,1,0,.1Zm-.3-6.1a3.1,3.1,0,0,0-.9-.9,2,2,0,0,0-1.1-.3l-.9.2-.7.6-.5.9-.4,1-.2,1a6.9,6.9,0,0,0-.1.9,6.2,6.2,0,0,0,0,.6,2,2,0,0,0,.2.6l.4.4.6.2,1-.3,1-.8a5.4,5.4,0,0,0,.8-1.2,5.8,5.8,0,0,0,.5-1.5Z"/><path d="M199.2,79.7a2.6,2.6,0,0,1,0,.3v.3l-.2.3h-.5l-.4-.3-.6-.3h-.9l-1,.2-.8.6-.5.9-.4,1a6.2,6.2,0,0,0-.2,1,7.1,7.1,0,0,0-.1.8,2.1,2.1,0,0,0,.4,1.4,1.5,1.5,0,0,0,1.2.5h1l.7-.3.5-.3h.5v1.1l-.2.3-.4.3-.6.3-.8.2h-.9a2.9,2.9,0,0,1-2.2-.7,3.1,3.1,0,0,1-.7-2.2,8,8,0,0,1,.4-2.6,7.8,7.8,0,0,1,.6-1.3,4.8,4.8,0,0,1,.9-1.1,4.2,4.2,0,0,1,1.2-.8,4.1,4.1,0,0,1,1.6-.3h.7l.6.2.5.3.4.3.2.2Z"/><path d="M207.6,80.7a2.2,2.2,0,0,1-.3,1.1,2.4,2.4,0,0,1-.9.9l-1.6.6-2.3.2h-1V84c0,.2,0,.4,0,.5a2,2,0,0,0,.4,1.4,1.9,1.9,0,0,0,1.5.5h1l.8-.2.6-.2h.4V87l-.4.2-.7.2h-1.8l-1.4-.2a2.5,2.5,0,0,1-1-.6,2.3,2.3,0,0,1-.6-.9,3.8,3.8,0,0,1-.2-1.3,7.9,7.9,0,0,1,.1-1.3,7.3,7.3,0,0,1,.4-1.4,7.2,7.2,0,0,1,.6-1.3,5.1,5.1,0,0,1,.9-1.1l1.3-.8a4.4,4.4,0,0,1,1.6-.3l1.3.2.9.5a1.9,1.9,0,0,1,.5.7A1.8,1.8,0,0,1,207.6,80.7Zm-1.6.1a.9.9,0,0,0-.4-.8,1.6,1.6,0,0,0-1-.3l-1,.2-.8.6-.6.8-.4,1h2.5l1-.3.6-.5A1.1,1.1,0,0,0,206,80.8Z"/><path d="M214.4,87.2h-1.5a.2.2,0,0,1,0-.1l1.6-8.2H216a.2.2,0,0,1,0,.1Zm2.4-11v.4l-.2.3H215a.4.4,0,0,1-.1-.3,1.9,1.9,0,0,1,0-.4v-.4l.2-.3.3-.2h.9l.3.2v.3A2,2,0,0,1,216.8,76.2Z"/><path d="M225.3,80.8a5.9,5.9,0,0,1,0,.6v.6l-1,5.1h-1.5l1-5.1v-.6c0-.2,0-.3,0-.5a1.6,1.6,0,0,0-.2-.9.9.9,0,0,0-.8-.3l-1,.3-.9.8a5.4,5.4,0,0,0-.8,1.2,5.8,5.8,0,0,0-.5,1.5l-.7,3.7h-1.5a.2.2,0,0,1,0-.1l1.7-8.2h1.3l-.3,1.6.4-.7.7-.6,1-.5,1.1-.2,1,.2.7.5a1.7,1.7,0,0,1,.4.7A3.2,3.2,0,0,1,225.3,80.8Z"/><path d="M237,79.1a1.5,1.5,0,0,1,0,.2v.6h-2.4l-.9,4.6V85c0,.2,0,.3,0,.4a1.1,1.1,0,0,0,.2.7.8.8,0,0,0,.6.2h1.3v.2a1.1,1.1,0,0,1,0,.3v.7H233l-.6-.3a1.4,1.4,0,0,1-.4-.6,2.8,2.8,0,0,1-.1-.8V84.7l.9-4.6h-1.3s-.1-.1-.1-.2v-.9h1.4l.4-2H235l-.4,2h2.3A.5.5,0,0,1,237,79.1Z"/><path d="M244.3,87.2h-1.5a.1.1,0,0,1,0-.1l1-5.1v-.5a4.6,4.6,0,0,0,0-.5,1.9,1.9,0,0,0-.1-.5l-.2-.4-.3-.3h-.5l-1,.3-.9.8a6,6,0,0,0-.8,1.2,5.6,5.6,0,0,0-.5,1.5l-.7,3.7h-1.5a.2.2,0,0,1,0-.1L239.8,75h1.5a.3.3,0,0,1,0,.1l-.7,3.7v1.8l.5-.7.7-.6.9-.5,1-.2,1,.2.7.5a1.9,1.9,0,0,1,.4.7,3.3,3.3,0,0,1,.1.9,4.6,4.6,0,0,1,0,.6v.6Z"/><path d="M254.9,80.7a2.2,2.2,0,0,1-.3,1.1,2.4,2.4,0,0,1-.9.9,5,5,0,0,1-1.6.6l-2.3.2h-1a3.3,3.3,0,0,0-.1.6c0,.2,0,.4,0,.5a2,2,0,0,0,.4,1.4,1.9,1.9,0,0,0,1.5.5h1.1l.8-.2.6-.2h.4V87l-.4.2-.7.2h-1.8l-1.4-.2a2.5,2.5,0,0,1-1-.6,2.4,2.4,0,0,1-.6-.9,4.2,4.2,0,0,1-.2-1.3,7.9,7.9,0,0,1,.1-1.3,8.8,8.8,0,0,1,.4-1.4,6.3,6.3,0,0,1,.6-1.3,5.1,5.1,0,0,1,.9-1.1l1.3-.8a4.3,4.3,0,0,1,1.6-.3l1.3.2.9.5a1.9,1.9,0,0,1,.5.7A2,2,0,0,1,254.9,80.7Zm-1.6.1a.9.9,0,0,0-.4-.8,1.6,1.6,0,0,0-1-.3l-1,.2-.8.6-.6.8-.4,1h2.5l1-.3.5-.5A1.1,1.1,0,0,0,253.3,80.8Z"/><path d="M273.1,78.9a1,1,0,0,1,0,.2v.2l-.8,2-.9,2-1.1,2L269,87.2l-.2.2h-1.6v-.2l-.6-6-2.8,6v.2h-1.8v-.2l-.9-7.8v-.2h0v-.2h1.5l.6,6.8h0l3.1-6.8h1.5l.7,6.8h0l.8-1.5.8-1.7.8-1.8.6-1.8h1.6Z"/><path d="M282,81.7a8,8,0,0,1-.1,1.4,7.5,7.5,0,0,1-.4,1.4,6,6,0,0,1-.7,1.2,4.5,4.5,0,0,1-.9,1l-1.2.7-1.5.3-1.5-.2a2.6,2.6,0,0,1-1-.6,2.5,2.5,0,0,1-.6-1,4.3,4.3,0,0,1-.2-1.3,8,8,0,0,1,.1-1.4,6.9,6.9,0,0,1,.4-1.4,7,7,0,0,1,.7-1.2,4.7,4.7,0,0,1,1-1l1.2-.7,1.5-.3,1.5.2a2.8,2.8,0,0,1,1,.6,2.5,2.5,0,0,1,.6,1A4.5,4.5,0,0,1,282,81.7Zm-1.6.1a2.8,2.8,0,0,0-.1-.8,1.4,1.4,0,0,0-.3-.6l-.6-.4h-.9l-1,.2-.8.5-.6.8-.4,1a6.1,6.1,0,0,0-.2,1,7.3,7.3,0,0,0-.1,1,3.1,3.1,0,0,0,.1.8,1.5,1.5,0,0,0,.3.6l.6.4h.9l1-.2.8-.5.6-.8.4-1a7.3,7.3,0,0,0,.2-1A6.2,6.2,0,0,0,280.4,81.8Z"/><path d="M289.6,79h0v1h-1.1l-.7.3-.8.7-.7,1.1a5.4,5.4,0,0,0-.5,1.4l-.7,3.7h-1.5a.2.2,0,0,1,0-.1l1.6-8.2h1.3a.2.2,0,0,1,0,.1l-.3,1.5.5-.7.6-.6.7-.4.7-.2h1Z"/><path d="M291.2,87.2h-1.5a.3.3,0,0,1,0-.1L292.1,75h1.5a.2.2,0,0,1,0,.1Z"/><path d="M300.8,87.2l-.2.2h-1.1a.2.2,0,0,1,0-.1l.3-1.5-.4.6-.7.6-.9.5-1.1.2h-.9l-.7-.4-.4-.6-.3-.6a4.3,4.3,0,0,1-.1-.7c0-.2,0-.4,0-.6a8.3,8.3,0,0,1,.1-1.2,8.9,8.9,0,0,1,.3-1.3,8.3,8.3,0,0,1,.6-1.3,4.9,4.9,0,0,1,.8-1.1l1.1-.8a3.4,3.4,0,0,1,1.4-.3h.7l.6.2.5.4.4.4.9-4.7h1.5a.2.2,0,0,1,0,.1Zm-.3-6.1a3.5,3.5,0,0,0-.9-1,2,2,0,0,0-1.1-.3l-.9.2-.7.6-.5.9a6.7,6.7,0,0,0-.4,1,7.5,7.5,0,0,0-.2,1,7.2,7.2,0,0,0-.1.9,2.5,2.5,0,0,0,.3,1.4,1.1,1.1,0,0,0,1,.5l1-.3,1-.8a5.6,5.6,0,0,0,.8-1.2,6,6,0,0,0,.5-1.5Z"/></g></g></svg>